<svg version="1.1" id="Layer_1" xmlns="http://www.w3.org/2000/svg" xmlns:xlink="http://www.w3.org/1999/xlink" x="0px" y="0px" viewBox="0 0 210.22569 182.46278" style="enable-background:new 0 0 210.22569 182.46278;" xml:space="preserve"><defs><style> .svg-style-0 {  fill: rgb(0, 0, 0); }</style></defs><path id="path-01_00000089546675662296018770000012723799916987456422_" d="M209.70752,179.82899L2.48193,0.36659
	C2.03906-0.01769,1.41162-0.109,0.87646,0.13612C0.34277,0.37977,0,0.91298,0,1.50038v179.4624c0,0.82861,0.67139,1.5,1.5,1.5
	h207.22559c0.62646,0,1.18652-0.38916,1.40527-0.97607C210.3501,180.8998,210.18115,180.23866,209.70752,179.82899z
	 M169.30664,179.46278v-3.21436h-3v3.21436h-4.98877v-4.85742h-3v4.85742h-4.98828v-3.21436h-3v3.21436h-4.98877v-8.55371h-3
	v8.55371h-4.98877v-3.21436h-3v3.21436h-4.98877v-4.85742h-3v4.85742h-4.98877v-3.21436h-3v3.21436h-4.98828v-8.55371h-3v8.55371
	h-4.98877v-3.21436h-3v3.21436h-4.98877v-4.85742h-3v4.85742h-4.98877v-3.21436h-3v3.21436h-4.98877v-8.55371h-3v8.55371h-4.98828
	v-3.21436h-3v3.21436H65.4541v-4.85742h-3v4.85742h-4.98877v-3.21436h-3v3.21436h-4.98877v-8.55371h-3v8.55371h-4.98877v-3.21436h-3
	v3.21436h-4.98828v-4.85742h-3v4.85742h-4.98877v-3.21436h-3v3.21436h-4.98877v-8.55371h-3v8.55371H9.5332v-3.21436h-3v3.21436H3
	v-14.76953h3.56836v-3H3v-4.98877h5.33447v-3H3v-4.98877h3.56836v-3H3v-4.98877h9.30859v-3H3v-4.98877h3.56836v-3H3v-4.98828
	h5.33447v-3H3v-4.98877h3.56836v-3H3v-4.98877h9.30859v-3H3v-4.98877h3.56836v-3H3v-4.98877h5.33447v-3H3v-4.98865l3.56836,0.00037
	v-3L3,81.80617v-4.9884h9.30859v-3H3v-4.98877h3.56836v-3H3v-4.98877h5.33447v-3H3v-4.98877h3.56836v-3H3v-4.98877l9.30859,0.00049
	v-3L3,41.86268V36.8744h3.56836v-3H3V4.78358l7.42419,6.42944l-3.07654,3.55151l2.26758,1.96387l3.07654-3.55151l4.09192,3.5437
	l-7.19385,8.30371l2.26758,1.96484l7.19434-8.30432l3.771,3.26575l-3.07861,3.55371l2.26758,1.96387l3.07861-3.55383
	l3.77124,3.26611l-4.34595,5.01672l2.26758,1.96387l4.34607-5.01684l3.77112,3.26587l-3.08057,3.55615l2.26758,1.96387
	l3.08057-3.55615l3.77112,3.26587l-7.19739,8.30786l2.26758,1.96484l7.198-8.30847l3.77075,3.26575l-3.08252,3.55786
	l2.26758,1.96484l3.08301-3.55859l3.771,3.26575l-4.3501,5.02136l2.26758,1.96387l4.3501-5.02148l3.771,3.26587l-3.08447,3.5603
	l2.26758,1.96484l3.08508-3.56079l3.77063,3.26538l-7.20142,8.3125l2.26758,1.96484l7.2019-8.31311l3.77124,3.26599
	l-3.08643,3.56275l2.26758,1.96387l3.08643-3.56287l3.771,3.26587l-4.354,5.02551l2.26758,1.96484l4.35461-5.02612l3.77087,3.26562
	l-3.08838,3.56519l2.26758,1.96387l3.08838-3.56519l3.77112,3.26587l-7.20569,8.31689l2.26758,1.96484l7.2063-8.3175
	l3.77075,3.26575l-3.09033,3.56738l2.26758,1.96387l3.09045-3.5675l3.77136,3.26611l-4.35791,5.0304l2.26758,1.96387
	l4.35791-5.03052l3.77112,3.26587l-3.09241,3.56934l2.26758,1.96484l3.0929-3.56982l3.77063,3.26538l-7.20923,8.32153
	l2.26758,1.96484l7.20972-8.32214l3.771,3.26575l-3.09448,3.57153l2.26758,1.96484l3.09497-3.57227l3.77075,3.26562
	l-4.36182,5.03516l2.26758,1.96387l4.36194-5.03516l3.77136,3.26611l-3.09619,3.57422l2.26758,1.96387l3.09619-3.57422
	l3.77112,3.26587l-7.2135,8.32593l2.26758,1.96484l7.21411-8.32654l3.77075,3.26562l-3.09814,3.57654l2.26758,1.96387
	l3.09827-3.57654l3.77136,3.26599l-4.36572,5.03955l2.26758,1.96387l4.36572-5.03955l3.77112,3.26587l-3.10022,3.57837
	l2.26758,1.96484l3.10083-3.57898l3.77051,3.2655l-7.21704,8.33057l2.26758,1.96484l7.21753-8.33118l3.771,3.26562l-3.10229,3.58069
	l2.26758,1.96484l3.10278-3.5813l3.77051,3.26538l-4.36938,5.04346l2.26758,1.96484l4.37-5.04395l3.77087,3.26562l-3.10425,3.58252
	l2.26758,1.96484l3.10474-3.58313l3.771,3.26575l-7.22144,8.33496l2.26758,1.96484l7.22192-8.33569l16.56177,14.34302H169.30664z
	 M30.48193,61.65565c-0.44336-0.38379-1.07031-0.4751-1.60547-0.23047C28.34277,61.66883,28,62.20204,28,62.78944v90.17334
	c0,0.82861,0.67139,1.5,1.5,1.5h104.12305c0.62646,0,1.18652-0.38916,1.40527-0.97607
	c0.21924-0.58691,0.05029-1.24805-0.42334-1.65771L30.48193,61.65565z M31,151.46278V66.07265l98.59961,85.39014H31z" class="svg-style-0"/></svg>