<svg version="1.1" id="Layer_1" xmlns="http://www.w3.org/2000/svg" xmlns:xlink="http://www.w3.org/1999/xlink" x="0px" y="0px" viewBox="0 0 300 278.3" style="enable-background:new 0 0 300 278.3;" xml:space="preserve"><defs><style> .svg-style-0 {  fill: rgb(0, 0, 0); }</style></defs><path id="path-16" d="M218.4,118.7c8.2-3.5,16.4-7.1,24.4-11.1c3.9-2,8.3-3.3,12.3-5c4.3-1.7,8.5-3.5,12.8-5.3
	c4.9-2.1,9.8-4.3,14.6-6.5c1.5-0.7,1.6-2.9,0.5-4c-0.6-0.6-1.3-1.4-2.1-1.6c-1.7-0.4-2.9,0.8-3.1,2.2c-7.6,3.5-15.3,6.8-23.1,10
	c-4.2,1.7-8.4,3.3-12.6,5c-2.1,0.9-4.1,2-6.2,3c-2,0.9-4,1.9-6,2.8c-4.6,2.1-9.3,4.2-14,6.2c-1.3,0.5-1.5,2.4-0.9,3.5
	C215.7,119.1,217.1,119.2,218.4,118.7z" class="svg-style-0"/><path id="path-15" d="M182.8,134.7c8.6-4,17.3-7.9,26-11.8c1.2-0.6,1.5-2.4,0.9-3.5c-0.8-1.3-2.2-1.5-3.5-0.9
	c-8.7,3.9-17.4,7.8-26,11.8c-1.2,0.6-1.5,2.4-0.9,3.5C180.1,135,181.6,135.3,182.8,134.7z" class="svg-style-0"/><polygon id="path-14" points="294.8,122.3 294.8,122.3 294.8,122.3 " class="svg-style-0"/><path id="path-13" d="M294.8,122.3C294.9,122,294.7,122.5,294.8,122.3L294.8,122.3z" class="svg-style-0"/><path id="path-12" d="M283.8,97.1c-0.7-2.1-3.9-3.3-5.4-1.3c-0.5,0.6-0.8,1.4-0.7,2.1c-0.7,0.3-1.4,0.6-2.2,0.9
	c-1.7,0.7-3.4,1.4-5.1,2.1c-3.2,1.3-6.4,2.7-9.7,4c-6.6,2.8-13.1,5.5-19.7,8.3c-13.1,5.6-26.1,11.3-39,17.1
	c-7.3,3.3-14.5,6.6-21.8,9.9c-1.2,0.6-1.5,2.4-0.9,3.5c0.7,1.3,2.2,1.5,3.5,0.9c28.6-13.2,57.5-25.8,86.6-37.9c4-1.6,8.1-3.1,12-4.9
	C283.2,100.8,284.5,99,283.8,97.1z" class="svg-style-0"/><path id="path-11" d="M270.4,110.7c-3.2,1.3-6.4,2.7-9.7,4c-6.6,2.8-13.1,5.5-19.7,8.3c-13.1,5.6-26.1,11.3-39,17.1
	c-7.3,3.3-14.5,6.6-21.8,9.9c-1.2,0.6-1.5,2.4-0.9,3.5c0.7,1.3,2.2,1.5,3.5,0.9c28.6-13.2,57.5-25.8,86.6-37.9c4-1.6,8.1-3.1,12-4.9
	c1.7-0.8,3-2.6,2.4-4.6c-0.7-2.1-3.9-3.3-5.4-1.3c-0.5,0.6-0.8,1.4-0.7,2.1c-0.7,0.3-1.4,0.6-2.2,0.9
	C273.8,109.3,272.1,110,270.4,110.7z" class="svg-style-0"/><path id="path-10" d="M283.8,141c-0.7-2.1-3.9-3.3-5.4-1.3c-0.5,0.6-0.8,1.4-0.7,2.1c-0.7,0.3-1.4,0.6-2.2,0.9
	c-1.7,0.7-3.4,1.4-5.1,2.1c-3.2,1.3-6.4,2.7-9.7,4c-6.6,2.8-13.1,5.5-19.7,8.3c-13.1,5.6-26.1,11.3-39,17.1
	c-7.3,3.3-14.5,6.6-21.8,9.9c-1.2,0.6-1.5,2.4-0.9,3.5c0.7,1.3,2.2,1.5,3.5,0.9c28.6-13.2,57.5-25.8,86.6-37.9c4-1.6,8.1-3.1,12-4.9
	C283.2,144.8,284.5,143,283.8,141z" class="svg-style-0"/><path id="path-9" d="M299.4,173.1c-1-3.8-4.7-6.6-8.6-7c-4.5-0.5-8.7,1.8-12.5,3.9c-15,8.4-30.2,16.4-45.6,24.1
	c-15.5,7.8-31.2,15.4-46.9,22.7c-1.8,0.9-3.7,1.7-5.5,2.6c-0.9,0.4-1.3,1.4-1.2,2.4c-0.3-1.4-1.5-2.8-2.3-3.9
	c-2.1-3.3-3.9-6.8-5.2-10.6c-2.5-7.1-3.7-15.1-2.4-22.5c0.7-3.8,2-7.5,4.7-10.4c1.7-1.7,0.1-4.2-1.7-4.3c0.4-0.1,0.8-0.2,1.2-0.4
	c1,2.2,4,2.6,5.3,0.4c0.3-0.6,0.4-1.1,0.4-1.7c0.1,0.2,0.1,0.5,0.2,0.7c0.7,1.3,2.2,1.5,3.5,0.9c0.5-0.2,1-0.5,1.5-0.7
	c0.4,0.1,0.8,0.1,1.2,0c23.7-8.7,47.6-17,71.2-25.9c11.8-4.4,23.5-9.1,35.1-14c0.7-0.3,1.5-0.6,2.3-1c0.4-0.2,0.6-0.3,1-0.6
	c-0.5,0.4-0.2,0.1-0.1,0.1c0.6-0.3,1.3-0.6,2-0.9c2.2-1.3,2.9-3.4,3-5.7c0.2-4.5-3.8-7.6-7.8-8.7c-5.4-1.4-10.6,1.6-15.3,4.2
	c-5.5,3.1-10.8,6.6-16.5,9.2c-1.2,0.6-1.5,2.4-0.9,3.5c0.8,1.3,2.2,1.5,3.5,0.9c4.8-2.2,9.3-4.9,13.8-7.6c2.2-1.3,4.4-2.5,6.7-3.6
	c1-0.5,2-0.9,3.1-1.3c0.5-0.2,1.1-0.4,1.6-0.6h0.1c0.2,0,0.5,0,0.7,0c1.3,0,2.8,0.4,4,1.2c0.4,0.3,1.1,0.8,1.3,1
	c0.2,0.2,0.5,0.8,0.5,0.8c0.1,0.3,0.1,0.3,0.1,0.7c0,0.4,0,0.7-0.1,1.3l0,0c0,0,0,0,0,0.1l0,0l0,0c0,0,0,0,0,0.1
	c-0.1,0.1-0.3,0.2-0.4,0.3c-0.3,0.2-0.7,0.3-1,0.5c-0.6,0.3-1.3,0.7-1.7,0.9c-1.3,0.6-2.6,1.1-3.9,1.7
	c-20.2,8.5-40.8,16.1-61.5,23.5c3.8-1.9,7.6-3.8,11.4-5.7c5.1-2.6,10.3-5.2,15.4-7.9c2.9-1.5,0.3-5.9-2.6-4.4
	c-18,9.4-36.2,18.4-54.5,27c-5.2,2.5-10.4,4.9-15.7,7.3c-0.9,0.4-1.3,1.4-1.2,2.4c-0.3-1.4-1.5-2.8-2.3-3.9
	c-2.1-3.3-3.9-6.8-5.2-10.6c-2.5-7.1-3.7-15.1-2.4-22.5c0.7-3.8,2-7.5,4.7-10.4c0.3-0.3,0.5-0.6,0.6-1c2.8-0.2,5.5-1.3,8.1-2.4
	c7.9-3.3,16.1-6.1,24.1-9c8.2-3.1,16.3-6.2,24.5-9.4c16.3-6.5,32.4-13.3,48.2-21c2-1,3.9-1.9,5.9-2.9c0.9-0.4,1.3-1.6,1.2-2.5
	c-0.2-1.1-0.8-1.7-1.8-2.1c-20.7-8.6-41.2-17.8-61.5-27.2c-5.8-2.7-11.6-5.4-17.4-8c-1.2-0.6-2.7-0.3-3.5,0.9
	c-0.6,1.1-0.3,2.9,0.9,3.5c20.6,9.6,41.3,19,62.1,28.1c4.2,1.8,8.4,3.6,12.6,5.4c-13.9,6.8-28.1,13-42.5,18.7
	c-16,6.5-32.3,12.5-48.5,18.4c-3.7,1.4-7.3,3.2-11.1,4.3c-1.6,0.4-2.8,0.3-4.4-0.2c-1.6-0.6-3-1.5-4.5-2.2
	c-3.6-1.9-7.5-3.5-11.3-5.1c-4.2-1.8-8.3-3.6-12.5-5.3c-16.4-6.7-33-12.9-49.7-18.8C76.6,77,59.8,71.3,42.9,65.5
	c-2.1-0.7-4.3-1.5-6.4-2.2c-1.3-0.4-2.8,0.5-3.1,1.8c-0.4,1.4,0.5,2.7,1.8,3.1c17.1,5.9,34.2,11.6,51.2,17.6
	c15.8,5.5,31.6,11.3,47.2,17.5c-4.6,5.1-6.2,12.1-6.3,18.8c-0.1,7.5,1.4,15,4.3,21.9c0.8,1.9,1.7,3.9,2.7,5.7c0,0.1,0.1,0.2,0.2,0.3
	c-6.4-2.5-12.9-5-19.4-7.5c-5.5-2.1-11.1-4.2-16.6-6.3c-1.3-0.5-2.8,0.5-3.1,1.8c-0.4,1.4,0.5,2.6,1.8,3.1
	c13.5,5.1,27.1,10.3,40.6,15.6c0.6,0.5,1.3,0.8,2.1,0.8c4,1.6,8.1,3.1,12.1,4.7c-0.4,0.1-0.9,0.3-1.3,0.7
	c-4.9,5.1-6.5,12.3-6.6,19.2c-0.1,7.5,1.4,15,4.3,21.9c0.8,1.9,1.7,3.9,2.7,5.7c0.1,0.3,0.3,0.5,0.4,0.7c-3-1.2-6.1-2.4-9.1-3.6
	c-0.5-1.1-1.4-2.2-2-3.1c-2.1-3.3-3.9-6.8-5.2-10.6c-2.5-7.1-3.7-15.1-2.4-22.5c0.7-3.8,2-7.5,4.7-10.4c2.2-2.4-1.3-5.9-3.6-3.6
	c-4.9,5.1-6.5,12.3-6.6,19.2c-0.1,7.5,1.4,15,4.3,21.9c0.8,1.9,1.7,3.9,2.7,5.7c0,0.1,0.1,0.2,0.1,0.2c-16.8-6.5-33.6-13-50.5-19.3
	c-8.4-3.2-16.9-6.3-25.3-9.4c-1.3-0.5-2.8,0.5-3.1,1.8c-0.4,1.4,0.5,2.6,1.8,3.1c25.8,9.5,51.5,19.2,77.1,29.2
	c-0.2,0.1-0.4,0.3-0.5,0.4c-7.7,8.1-7.5,20.2-5.6,30.4c0.3,1.3,1.9,2.1,3.1,1.8c1.4-0.4,2-1.8,1.8-3.1c-1.6-8.3-2-18.9,4.3-25.5
	c0.7-0.8,0.8-1.7,0.6-2.4c0.5,0.4,1.2,0.5,1.8,0.5c2.2,0.9,4.5,1.7,6.7,2.6c1.4,0.6,2.8,1.1,4.2,1.7c-0.1,0.1-0.1,0.1-0.2,0.2
	c-4.9,5.1-6.5,12.3-6.6,19.2c-0.1,7.5,1.4,15,4.3,21.9c0.8,1.9,1.7,3.9,2.7,5.7c0.1,0.3,0.3,0.5,0.5,0.8c-3.4-1.3-6.7-2.6-10.1-3.9
	c-0.5-1.6-1.3-3.2-2.2-4.6c-0.5-0.8-1-1.5-1.4-2.3c-0.2-0.4-0.5-0.8-0.7-1.3c0-0.1,0-0.1-0.1-0.2c-0.1-0.3-0.2-0.5-0.3-0.8
	c-0.4-1.3-1.8-2.2-3.1-1.8s-2.2,1.8-1.8,3.1c0.6,1.9,1.5,3.5,2.6,5.2c-7.3-2.8-14.6-5.6-21.9-8.4c-20.2-7.6-40.4-15.1-60.7-22.6
	c-11.3-4.2-22.6-8.3-34-12.5c-1.3-0.5-2.8,0.5-3.1,1.8c-0.4,1.4,0.5,2.6,1.8,3.1c20.2,7.4,40.5,14.8,60.7,22.3s40.4,15.1,60.5,22.9
	c0.4,0.2,0.8,0.4,1.2,0.5c8.8,3.4,17.7,6.9,26.5,10.4c0.5,0.5,1.2,0.9,1.9,1.1c0.2,0.4,0.5,0.7,0.9,1c1.7,1,3.5,1,5.2,0.2
	c1,2.2,4,2.6,5.3,0.4c0.3-0.6,0.4-1.1,0.4-1.7c0.1,0.2,0.1,0.5,0.2,0.7c0.7,1.3,2.2,1.5,3.5,0.9c0.5-0.2,1-0.5,1.5-0.7
	c0.4,0.1,0.8,0.1,1.2,0c15.8-5.8,31.6-11.7,47.4-17.6c16-6,32.1-11.8,48.2-17.9c4.3-1.6,8.8-3.1,12.9-5.2c3.5-1.7,6.3-5.1,5.3-9.3
	c-1-3.8-4.7-6.6-8.6-7c-4.5-0.5-8.7,1.8-12.5,3.9c-15,8.4-30.2,16.4-45.6,24.1c-15.5,7.8-31.2,15.4-46.9,22.7
	c-1.8,0.9-3.7,1.7-5.5,2.6c-0.9,0.4-1.3,1.4-1.2,2.4c-0.3-1.4-1.5-2.8-2.3-3.9c-2.1-3.3-3.9-6.8-5.2-10.6
	c-2.5-7.1-3.7-15.1-2.4-22.5c0.7-3.8,2-7.5,4.7-10.4c0.7-0.8,0.8-1.7,0.6-2.4c1.3,0.9,3.3,0.7,4.3-1c0.3-0.6,0.4-1.1,0.4-1.7
	c0.1,0.2,0.1,0.5,0.2,0.7c0.7,1.3,2.2,1.5,3.5,0.9c0.5-0.2,1-0.5,1.5-0.7c0.4,0.1,0.8,0.1,1.2,0c15.8-5.8,31.6-11.7,47.4-17.6
	c16-6,32.1-11.8,48.2-17.9c4.3-1.6,8.8-3.1,12.9-5.2C297.6,180.7,300.4,177.3,299.4,173.1z M294.8,122.4
	C294.7,122.5,294.7,122.5,294.8,122.4L294.8,122.4z M137.1,251.2C137.1,251.1,137.1,251.1,137.1,251.2
	C137.1,251.1,137.1,251.1,137.1,251.2z M271.7,232.3c3.5-1.9,7-3.9,10.5-5.8c2.8-1.5,6.9-3.7,10-1.9c1,0.6,2.1,1.6,2.3,2.9
	c0.2,1.2-0.7,2.1-1.7,2.7c-1.5,0.9-3.2,1.5-4.8,2.2c-2.1,0.8-4.3,1.7-6.4,2.5c-15.3,5.8-30.8,11.4-46.2,17.2c-2,0.7-3.9,1.5-5.9,2.2
	C243.7,247.2,257.8,239.9,271.7,232.3z M140.2,149.8c-2.1-3.3-3.9-6.8-5.2-10.6c-2.5-7.1-3.7-15.1-2.4-22.5c0.7-3.8,2-7.5,4.7-10.4
	c0.4-0.4,0.6-0.9,0.7-1.4c3.9,1.6,7.8,3.2,11.6,4.8c-4.8,5.6-6,13.3-5.8,20.5c0,1.4,1.1,2.5,2.5,2.5c1.3,0,2.6-1.2,2.5-2.5
	c-0.2-6.3,0.7-13.1,5.1-17.8c0.2-0.2,0.3-0.4,0.4-0.6c2.3,1,4.6,2,6.9,3c2.6,1.1,5,2.7,7.6,3.8c-3.8,5-5.2,11.4-5.3,17.6
	c-0.1,7.5,1.4,15,4.3,21.9c0.8,1.9,1.7,3.9,2.7,5.7c0.1,0.1,0.1,0.2,0.2,0.3c-4-1.6-8-3.2-12-4.8v-0.1c-0.5-1.4-1.4-2.6-2.2-3.8
	c-3-4.7-5.1-9.8-6.4-15.2c-0.8-3.2-5.7-1.8-4.9,1.3c1.1,4.5,2.8,8.9,5,13c0.3,0.6,0.6,1.2,1,1.7c-3.1-1.2-6.1-2.4-9.2-3.6
	C141.7,151.7,140.8,150.7,140.2,149.8z M156.7,158.3c0.1,0,0.3,0.1,0.4,0.2C157,158.4,156.9,158.3,156.7,158.3z M149.3,176.7
	c0.7-3.8,2-7.5,4.7-10.4c1-1.1,0.8-2.5,0.1-3.4c0.4,0.1,0.7,0.3,1.1,0.4c4,1.6,7.9,3.2,11.9,4.7c0.1,0.6,0.5,1.1,1.1,1.5
	c1,0.6,2,0.8,3,0.8c-0.3,0.1-0.6,0.3-0.9,0.6c-4.9,5.1-6.5,12.3-6.6,19.2c-0.1,7.5,1.4,15,4.3,21.9c0.8,1.9,1.7,3.9,2.7,5.7
	c0.1,0.1,0.1,0.2,0.2,0.3c-3.9-1.6-7.9-3.1-11.8-4.7c-0.4-1.3-1.5-2.5-2.2-3.6c-2.1-3.3-3.9-6.8-5.2-10.6
	C149.3,192.1,148,184.1,149.3,176.7z M166.8,274.8C166.7,274.7,166.6,274.7,166.8,274.8L166.8,274.8z M163.7,243
	c-0.1,7.5,1.4,15,4.3,21.9c0.8,1.9,1.7,3.9,2.7,5.7c0.1,0.1,0.1,0.2,0.2,0.3h-0.1c-3.9-1.6-7.8-3.1-11.8-4.7
	c-0.4-1.3-1.5-2.5-2.2-3.6c-2.1-3.3-3.9-6.8-5.2-10.6c-2.5-7.1-3.7-15.1-2.4-22.5c0.7-3.8,2-7.5,4.7-10.4c0.6-0.7,0.8-1.4,0.7-2.2
	c4.1,1.6,8.2,3.3,12.4,4.9c0.1,0.6,0.5,1.1,1.1,1.5s1.2,0.6,1.9,0.7C165.4,229.2,163.8,236.2,163.7,243z M292.8,177.3
	c-1.5,0.9-3.2,1.5-4.8,2.2c-2.1,0.8-4.3,1.7-6.4,2.5c-15.3,5.8-30.8,11.4-46.2,17.2c-2,0.7-3.9,1.5-5.9,2.2
	c14.2-7.1,28.3-14.3,42.2-21.9c3.5-1.9,7-3.9,10.5-5.8c2.8-1.5,6.9-3.7,10-1.9c1,0.6,2.1,1.6,2.3,2.9
	C294.7,175.8,293.8,176.7,292.8,177.3z" class="svg-style-0"/><path id="path-8" d="M271.4,154.7c-3.1,1.4-6.2,2.6-9.3,3.9c-6.5,2.6-13.1,5.1-19.5,7.7c-1.3,0.5-2.2,1.7-1.8,3.1
	c0.3,1.2,1.8,2.3,3.1,1.8c7.2-3,14.5-5.7,21.7-8.6c3.6-1.5,7.2-3,10.7-4.6c1.7-0.8,3.8-1.5,5.3-2.6c1.2-1,1.9-2.5,2-4
	c0.1-1.4-1.3-2.5-2.5-2.5c-0.3,0-1.4-0.1-0.4,0.1c-1.3-0.2-2.7,0.4-3.1,1.8c-0.1,0.4-0.1,0.8,0,1.2c-0.5,0.2-1,0.5-1.4,0.7
	C274.6,153.3,273,154,271.4,154.7z" class="svg-style-0"/><path id="path-7path-8" d="M182.8,198.4c16.9-7.7,33.8-15.3,50.9-22.7c1.3-0.5,1.5-2.4,0.9-3.5c-0.8-1.3-2.2-1.5-3.5-0.9
	c-17,7.4-34,15-50.9,22.7c-1.2,0.6-1.5,2.4-0.9,3.5C180.1,198.7,181.6,198.9,182.8,198.4z" class="svg-style-0"/><path id="path-6" d="M179.3,207.3c0.7,1.3,2.2,1.5,3.5,0.9c28.6-13.2,57.5-25.8,86.6-37.9c4-1.6,8.1-3.1,12-4.9
	c1.7-0.8,3-2.6,2.4-4.6c-0.7-2.1-3.9-3.3-5.4-1.3c-0.5,0.6-0.8,1.4-0.7,2.1c-0.7,0.3-1.4,0.6-2.2,0.9c-1.7,0.7-3.4,1.4-5.1,2.1
	c-3.2,1.3-6.4,2.7-9.7,4c-6.6,2.8-13.1,5.5-19.7,8.3c-13.1,5.6-26.1,11.3-39,17.1c-7.3,3.3-14.5,6.6-21.8,9.9
	C179,204.4,178.7,206.2,179.3,207.3z" class="svg-style-0"/><path id="path-5" d="M270.4,197.6c-3.2,1.3-6.4,2.7-9.7,4c-6.6,2.8-13.1,5.5-19.7,8.3c-13.1,5.6-26.1,11.3-39,17.1
	c-7.3,3.3-14.5,6.6-21.8,9.9c-1.2,0.6-1.5,2.4-0.9,3.5c0.7,1.3,2.2,1.5,3.5,0.9c28.6-13.2,57.5-25.8,86.6-37.9c4-1.6,8.1-3.1,12-4.9
	c1.7-0.8,3-2.6,2.4-4.6c-0.7-2.1-3.9-3.3-5.4-1.3c-0.5,0.6-0.8,1.4-0.7,2.1c-0.7,0.3-1.4,0.6-2.2,0.9
	C273.8,196.2,272.1,196.9,270.4,197.6z" class="svg-style-0"/><path id="path-4" d="M13.5,163.7c0.1,0,0.2,0,0.4,0.1c0.3,0.4,0.8,0.8,1.3,1c10.3,3.6,20.6,7.3,30.8,11.1c1.3,0.5,2.8-0.5,3.1-1.8
	c0.4-1.4-0.5-2.6-1.8-3.1c-10.3-3.7-20.5-7.4-30.8-11.1c-0.1,0-0.3-0.1-0.4-0.1c-0.1-0.1-0.2-0.3-0.3-0.4c-0.2-0.2-0.5-0.4-0.8-0.5
	l0,0c-1.2-3.5-4.6-5.5-6.4-8.6c-1.7-2.9-2.7-6.2-3.1-9.5c-0.9-7.1,0.1-14.7,2.8-21.3c0.8-1.9,1.7-3.7,2.8-5.4c0.5-0.8,1-1.6,1.6-2.3
	c0.3-0.4,0.6-0.7,0.9-1.1l0,0c0.3,0,0.7,0,1-0.1c0.2,0.1,0.4,0.2,0.6,0.3c18.4,6.5,36.8,13.2,55.2,20c5.2,1.9,10.3,3.8,15.5,5.8
	c1.3,0.5,2.8-0.5,3.1-1.8c0.4-1.4-0.5-2.6-1.8-3.1c-18.3-6.9-36.7-13.6-55.1-20.2c-5.2-1.9-10.4-3.7-15.6-5.6
	c-0.4-0.1-0.8-0.1-1.2,0c-0.1-0.1-0.1-0.1-0.2-0.1c0-0.3,0-0.5-0.1-0.9c-1.2-3.5-4.6-5.5-6.4-8.6c-1.7-2.9-2.7-6.2-3.1-9.5
	c-0.9-7.1,0.1-14.7,2.8-21.3C9,63.8,10,62,11.1,60.3c0.5-0.8,1-1.6,1.6-2.3c0.2-0.3,0.4-0.5,0.7-0.8c0.1,0.1,0.1,0.2,0.2,0.3
	c2.9,2.8,6.5,4.7,10,6.5c1.2,0.6,2.8,0.4,3.5-0.9c0.6-1.1,0.4-2.8-0.9-3.5c-1.7-0.8-3.3-1.7-4.9-2.6c-0.8-0.5-1.6-1-2.3-1.5
	c-0.1,0-0.1-0.1-0.2-0.1c-0.2-0.1-0.3-0.3-0.5-0.4c-0.3-0.2-0.5-0.5-0.8-0.7c29.2-12.6,58.2-25.7,87.4-38.4
	c8.1-3.5,16.2-7,24.4-10.5c16.6,7.5,33.1,15.3,49.6,23c4.7,2.2,9.4,4.4,14.2,6.6c1.2,0.6,2.7,0.3,3.5-0.9c0.6-1.1,0.3-2.9-0.9-3.5
	c-11.5-5.4-23.1-10.8-34.6-16.2c-5.8-2.7-11.7-5.4-17.5-8.2c-3-1.4-5.9-2.7-8.9-4.1c-1.4-0.7-3-1.6-4.5-2c-1.6-0.4-3.7,1-5.2,1.6
	c-23.8,10.1-47.4,20.6-71,31c-13.3,5.9-26.6,11.7-40,17.5c-0.6,0.3-1,0.8-1.1,1.4c-0.7,0.1-1.5,0.5-2.1,1c-1.7,1.4-3,3.4-4.1,5.1
	c-2.3,3.7-4,7.8-5.1,12C-0.5,77.8-0.8,87.2,2.3,95c0.9,2.3,2.1,4.4,3.6,6.3c0.7,0.9,1.5,1.8,2.4,2.6c0.7,0.7,1.5,1.4,1.8,2.3
	c0.1,0.2,0.1,0.3,0.2,0.4c-1.4,1.4-2.6,3.1-3.6,4.8c-2.3,3.7-4,7.8-5.1,12c-2.1,8.1-2.4,17.5,0.7,25.3c0.9,2.3,2.1,4.4,3.6,6.3
	c0.7,0.9,1.5,1.8,2.4,2.6c0.7,0.6,1.4,1.3,1.7,2.1C1.4,170-2.1,184.9,1.5,197.9c1.1,3.8,2.8,7.5,5.1,10.8c0.8,1.1,2.2,1.6,3.5,0.9
	c1.1-0.6,1.7-2.4,0.9-3.5c-7.4-10.2-7.4-24.3-2.1-35.4C10.1,168.3,11.7,165.9,13.5,163.7z" class="svg-style-0"/><path id="path-3" d="M281.4,208.4c1.7-0.8,3-2.6,2.4-4.6c-0.7-2.1-3.9-3.3-5.4-1.3c-0.5,0.6-0.8,1.4-0.7,2.1
	c-0.7,0.3-1.4,0.6-2.2,0.9c-1.7,0.7-3.4,1.4-5.1,2.1c-3.2,1.3-6.4,2.7-9.7,4c-6.6,2.8-13.1,5.5-19.7,8.3
	c-13.1,5.6-26.1,11.3-39,17.1c-7.3,3.3-14.5,6.6-21.8,9.9c-1.2,0.6-1.5,2.4-0.9,3.5c0.7,1.3,2.2,1.5,3.5,0.9
	c28.6-13.2,57.5-25.8,86.6-37.9C273.4,211.7,277.6,210.2,281.4,208.4z" class="svg-style-0"/><path id="path-2" d="M215.2,246.5c10.1-4.4,20-9.2,30.1-13.6c2.5-1.1,4.9-2.2,7.4-3.3c2.4-1,4.9-2.2,7.4-3c5-1.5,9.9-3.1,14.7-5.3
	c2.5-1.2,5.2-2.4,7.5-3.9c1.4-0.9,2.4-2.7,1.5-4.3c-0.8-1.4-2.2-1.5-3.6-1.6s-2.5,1.2-2.5,2.5c0,0.1,0,0.1,0,0.2
	c-0.2,0.1-0.5,0.3-0.7,0.4c-1,0.5-2,1-3,1.5c-2,1-4,1.9-6.1,2.7s-4.2,1.5-6.4,2.2c-1.1,0.3-2.2,0.5-3.3,0.9c-1.2,0.4-2.4,1-3.6,1.4
	c-9,3.7-17.8,7.8-26.6,11.8c-5.1,2.4-10.3,4.7-15.5,7c-1.3,0.5-1.5,2.4-0.9,3.5C212.5,246.8,213.9,247,215.2,246.5z" class="svg-style-0"/><path id="path-1" d="M206.9,244.6c-8.9,4-17.8,8-26.6,12.1c-1.2,0.6-1.5,2.4-0.9,3.5c0.7,1.3,2.2,1.5,3.5,0.9
	c8.9-4.1,17.7-8.1,26.6-12.1c1.2-0.6,1.5-2.4,0.9-3.5C209.6,244.3,208.1,244.1,206.9,244.6z" class="svg-style-0"/></svg>