<?xml version="1.0" encoding="utf-8"?>
<!-- Generator: Adobe Illustrator 28.0.0, SVG Export Plug-In . SVG Version: 6.00 Build 0)  -->
<svg version="1.1" id="Layer_1" xmlns="http://www.w3.org/2000/svg" xmlns:xlink="http://www.w3.org/1999/xlink" x="0px" y="0px"
	 viewBox="0 0 146.3257 250" style="enable-background:new 0 0 146.3257 250;" xml:space="preserve">
<style type="text/css">
	.st0{fill:#231F20;}
</style>
<path id="Path-1" class="st0" d="M146.32414,47.22329c0.08623-9.12669-3.40344-17.72248-9.82472-24.20432
	c-1.63547-1.65104-3.41185-3.1071-5.29837-4.36474l5.73241-7.82195c0.03535-0.04832,0.05769-0.10239,0.08337-0.15507
	c0.01083-0.0221,0.02507-0.04093,0.03427-0.06388c0.04341-0.10845,0.06461-0.22198,0.06812-0.33757
	c0.00037-0.0106,0.00606-0.01944,0.00606-0.03009V0.99206C137.12527,0.4442,136.68156,0,136.13321,0H10.19249
	C9.64463,0,9.20043,0.4442,9.20043,0.99206v9.25361c0,0.01054,0.00569,0.01926,0.00599,0.02973
	c0.00351,0.11583,0.02483,0.22961,0.06836,0.3383c0.00902,0.02252,0.02301,0.04087,0.03361,0.06255
	c0.02573,0.05298,0.04826,0.10742,0.08386,0.15604l5.73264,7.8217c-1.88682,1.25782-3.6635,2.71413-5.2991,4.36547
	c-6.42177,6.48232-9.91046,15.07811-9.82424,24.20432c0.07411,7.89872,3.22033,15.29609,8.85882,20.82946
	c4.46156,4.37764,10.07286,7.17351,16.13605,8.1112c-0.93466,0.96312-1.51619,2.27126-1.51619,3.71606
	c0,2.9481,2.39829,5.34639,5.3459,5.34639h2.10426v116.83727h-2.10426c-2.94761,0-5.3459,2.39781-5.3459,5.3459
	c0,1.6554,0.77148,3.11879,1.94192,4.09959c-5.22275,1.80411-8.99003,6.75819-8.99003,12.58626v5.46695l-7.03987,9.60583
	c-0.03669,0.0499-0.06091,0.10553-0.08719,0.16022c-0.00914,0.01901-0.02174,0.03487-0.02967,0.05455
	c-0.0439,0.10826-0.06437,0.22223-0.06824,0.33806c-0.00042,0.01175-0.00672,0.0215-0.00672,0.03329v9.25313
	c0,0.54836,0.4442,0.99207,0.99206,0.99207h125.94071c0.54836,0,0.99207-0.44371,0.99207-0.99207v-9.25313
	c0-0.0121-0.00648-0.02216-0.0069-0.03415c-0.00394-0.1154-0.02417-0.22882-0.06783-0.33665
	c-0.00824-0.02034-0.02119-0.03676-0.0307-0.05644c-0.02609-0.05418-0.05002-0.10941-0.0864-0.15887l-7.04036-9.6071v-5.46568
	c0-5.83176-3.77195-10.78862-8.99979-12.58983c1.18244-0.98135,1.95264-2.44286,1.95264-4.09602
	c0-2.94809-2.39878-5.3459-5.34687-5.3459h-2.10426V85.22688h2.10426c2.94809,0,5.34687-2.39829,5.34687-5.34639
	c0-1.44522-0.58189-2.75372-1.51722-3.7169c6.06422-0.93848,11.67648-3.73399,16.13562-8.11035
	C143.10284,62.52083,146.24858,55.12347,146.32414,47.22329z M117.49908,76.51871c1.8543,0,3.36274,1.50796,3.36274,3.36178
	s-1.50844,3.36227-3.36274,3.36227H28.82614c-1.85382,0-3.36178-1.50845-3.36178-3.36227s1.50796-3.36178,3.36178-3.36178h15.88028
	h8.46209h1.22797h8.46209h1.22845h8.4616h1.22797h8.46257h1.22749h8.46257h1.22845h8.46161H117.49908z M117.41964,210.77473
	l-0.30676,0.02458c-0.18147-0.00739-0.3596-0.02748-0.54289-0.02748H29.75523c-0.19419,0-0.3831,0.02083-0.57529,0.02913
	l-0.3538-0.02913c-1.85382,0-3.36178-1.50844-3.36178-3.36179c0-1.85333,1.50796-3.36177,3.36178-3.36177h88.67294
	c1.8543,0,3.36274,1.50844,3.36274,3.36177C120.86182,209.2634,119.35339,210.77184,117.41964,210.77473z M11.18456,248.01587
	v-7.269h123.95659v7.269H11.18456z M12.14962,238.76276l5.84333-7.97333h110.33982l5.84283,7.97333H12.14962z M127.90897,228.8053
	H18.41626v-4.7094c0-6.25272,5.08675-11.33994,11.33897-11.33994h86.81476c6.25271,0,11.33897,5.08722,11.33897,11.33994V228.8053z
	 M32.91453,202.06415V85.22688h80.49616v116.83727H32.91453z M52.33733,38.5718c-0.99975-1.65939-2.19278-3.21603-3.61179-4.60864
	c-1.50941-1.48083-3.20967-2.74658-5.04025-3.75947h58.96481c-1.83687,1.01289-3.54101,2.27816-5.05042,3.75947
	c-1.41919,1.39285-2.61228,2.94943-3.61198,4.60864H52.33733z M92.92159,40.55592c-0.49997,1.05225-0.93091,2.13435-1.26503,3.25278
	H54.66829c-0.33412-1.11849-0.76506-2.20053-1.26497-3.25278H92.92159z M91.15067,45.79284
	c-0.2947,1.44668-0.45698,2.93108-0.47121,4.44007c-0.03524,3.8308,0.7584,7.54263,2.29082,10.93644H53.36112
	c1.52903-3.39254,2.32043-7.10424,2.28416-10.93644c-0.01423-1.50904-0.17645-2.99351-0.47115-4.44007H91.15067z M93.97493,63.15347
	c0.63312,1.1306,1.35307,2.21737,2.15773,3.25278H50.20285c0.80387-1.03523,1.52303-2.122,2.1553-3.25278H93.97493z
	 M102.48964,74.53458c-0.18758-1.09312-0.52946-2.05655-0.93823-2.90038c1.62149,1.16833,3.35887,2.14114,5.18647,2.90038H102.48964
	z M92.57912,73.54337c-0.66418-2.45588-2.05946-4.18369-3.04207-5.15299h6.43449
	C93.98129,70.27563,93.02973,72.17916,92.57912,73.54337z M53.81822,73.54288c-0.66418-2.45557-2.05933-4.18327-3.04176-5.15251
	h6.4343C55.22082,70.27532,54.26914,72.17873,53.81822,73.54288z M63.50852,73.54307
	c-0.66406-2.4557-2.05945-4.18346-3.04207-5.15269h6.43443C64.91093,70.27538,63.95932,72.17879,63.50852,73.54307z
	 M73.19846,73.54258c-0.66412-2.45545-2.05939-4.18303-3.04195-5.15221h6.43472
	C74.60123,70.2752,73.6495,72.17837,73.19846,73.54258z M82.88869,73.54227c-0.66424-2.45527-2.05921-4.18272-3.0417-5.1519h6.4343
	C84.29141,70.27508,83.33968,72.17813,82.88869,73.54227z M49.14939,69.57863c0.83318,0.76778,2.33677,2.4477,2.87011,4.95596
	h-6.12919C46.20324,73.39865,47.0214,71.48524,49.14939,69.57863z M58.83654,69.58105
	c0.83366,0.77408,2.33823,2.46272,2.87204,4.95354h-6.12822C55.8933,73.39913,56.71097,71.4867,58.83654,69.58105z
	 M68.5266,69.58105c0.83366,0.77408,2.33823,2.46272,2.87204,4.95354h-6.12773C65.58384,73.39913,66.40103,71.4867,68.5266,69.58105
	z M78.22054,69.57863c0.83318,0.76778,2.33581,2.4477,2.86962,4.95596h-6.12968
	C75.27341,73.39865,76.09206,71.48524,78.22054,69.57863z M87.91059,69.57863c0.83318,0.76778,2.33581,2.4477,2.86962,4.95596
	h-6.12967C84.96347,73.39865,85.78211,71.48524,87.91059,69.57863z M97.60065,69.57863
	c0.83318,0.76778,2.3358,2.4477,2.86962,4.95596h-6.12871C94.6545,73.39865,95.47217,71.48524,97.60065,69.57863z
	 M43.85538,74.53458h-4.25502c1.94568-0.80799,3.79042-1.85485,5.49928-3.12521
	C44.36104,72.67901,44.01445,73.79108,43.85538,74.53458z M116.76376,74.53458l-0.26546-0.00146
	c-6.42226-0.06104-12.43858-2.62209-16.94355-7.21183c-4.50304-4.58975-6.95123-10.65161-6.89117-17.06999
	c0.05232-5.63848,2.299-10.91996,6.32538-14.87175c2.49857-2.4511,5.57551-4.25454,8.89951-5.21512
	c0.47472-0.13709,0.77602-0.6026,0.70723-1.09185c-0.06975-0.48925-0.48828-0.85304-0.98238-0.85304H38.74435
	c-0.49409,0-0.91262,0.3633-0.98238,0.85207c-0.06927,0.48877,0.23106,0.95476,0.7053,1.09282
	c3.30462,0.96058,6.37139,2.76402,8.8685,5.21512c4.0259,3.95033,6.27209,9.23181,6.32537,14.87175
	c0.06104,6.42565-2.38376,12.48944-6.88438,17.07579c-4.50013,4.58539-10.51694,7.14451-16.93774,7.20602l-0.28386,0.00146
	c-7.25931,0-14.11511-2.80471-19.30552-7.89776C4.98997,61.475,2.05496,54.57415,1.98569,47.20536
	c-0.08138-8.59288,3.20386-16.68633,9.24973-22.78985c5.97079-6.02795,13.90778-9.34807,22.34807-9.34807h79.15775
	c8.44029,0,16.37778,3.31963,22.34953,9.34758c6.04538,6.10303,9.32965,14.19649,9.24924,22.78936
	c-0.06975,7.37024-3.00525,14.27157-8.26492,19.43243C130.88612,71.72987,124.025,74.53458,116.76376,74.53458z M11.18456,1.98413
	h123.95659v7.26948H11.18456V1.98413z M134.17621,11.23773l-4.66568,6.36643c-5.04551-2.94434-10.78608-4.52084-16.76929-4.52084
	H33.58349c-5.98284,0-11.72305,1.5765-16.76814,4.5206l-4.66586-6.36619H134.17621z M44.48069,88.90788
	c-3.386,0-6.14033,2.75433-6.14033,6.14034v97.83451c0,3.386,2.75433,6.14034,6.14033,6.14034s6.14033-2.75433,6.14033-6.14034
	V95.04821C50.62102,91.66221,47.86669,88.90788,44.48069,88.90788z M48.63689,192.88272c0,2.29221-1.86448,4.1562-4.1562,4.1562
	s-4.1562-1.864-4.1562-4.1562V95.04821c0-2.29173,1.86448-4.1562,4.1562-4.1562s4.1562,1.86448,4.1562,4.1562V192.88272z
	 M63.60213,88.90788c-3.386,0-6.14033,2.75433-6.14033,6.14034v97.83451c0,3.386,2.75433,6.14034,6.14033,6.14034
	s6.14033-2.75433,6.14033-6.14034V95.04821C69.74246,91.66221,66.98813,88.90788,63.60213,88.90788z M67.75833,192.88272
	c0,2.29221-1.86447,4.1562-4.1562,4.1562c-2.29173,0-4.1562-1.864-4.1562-4.1562V95.04821c0-2.29173,1.86448-4.1562,4.1562-4.1562
	c2.29173,0,4.1562,1.86448,4.1562,4.1562V192.88272z M82.72357,88.90788c-3.38599,0-6.14033,2.75433-6.14033,6.14034v97.83451
	c0,3.386,2.75433,6.14034,6.14033,6.14034c3.386,0,6.14034-2.75433,6.14034-6.14034V95.04821
	C88.86391,91.66221,86.10957,88.90788,82.72357,88.90788z M86.87978,192.88272c0,2.29221-1.86399,4.1562-4.1562,4.1562
	c-2.29221,0-4.1562-1.864-4.1562-4.1562V95.04821c0-2.29173,1.864-4.1562,4.1562-4.1562c2.29221,0,4.1562,1.86448,4.1562,4.1562
	V192.88272z M101.84502,88.90788c-3.386,0-6.14033,2.75433-6.14033,6.14034v97.83451c0,3.386,2.75433,6.14034,6.14033,6.14034
	s6.14033-2.75433,6.14033-6.14034V95.04821C107.98534,91.66221,105.23102,88.90788,101.84502,88.90788z M106.00122,192.88272
	c0,2.29221-1.864,4.1562-4.1562,4.1562s-4.1562-1.864-4.1562-4.1562V95.04821c0-2.29173,1.864-4.1562,4.1562-4.1562
	s4.1562,1.86448,4.1562,4.1562V192.88272z M139.2049,47.1565c-0.05656,5.99767-2.44534,11.61406-6.72635,15.81495
	c-4.22917,4.15003-9.80462,6.42783-15.72048,6.42783c-0.07315,0-0.14563-0.00067-0.21811-0.00134
	c-10.43223-0.0984-18.83933-8.66572-18.74094-19.09801c0.0399-4.26834,1.74059-8.26548,4.78696-11.25529
	c3.04704-2.98951,7.094-4.61209,11.34309-4.57358c3.61549,0.03427,7.00094,1.47399,9.53335,4.05429
	c2.53181,2.58067,3.90801,5.99271,3.87344,9.60783c-0.02924,3.07198-1.25256,5.94881-3.44527,8.1003
	c-2.19267,2.15179-5.10007,3.32127-8.16309,3.29166c-5.40858-0.05087-9.76738-4.49244-9.71682-9.90102
	c0.04384-4.60579,3.80428-8.32234,8.39978-8.32234c0.02725,0,0.05383,0,0.08041,0.00036
	c0.79581,0.00733,1.43475,0.65855,1.42748,1.45437c-0.00732,0.79116-0.65092,1.42712-1.44074,1.42712
	c-0.02198-0.00036-0.04457,0.00031-0.06649,0c-3.01978,0-5.49037,2.44165-5.51895,5.46774
	c-0.03591,3.8196,3.04304,6.95607,6.86197,6.99228c0.02792,0.00036,0.0565,0.00036,0.08374,0.00036
	c2.27114,0,4.41131-0.87429,6.03425-2.46726c1.64353-1.61265,2.56033-3.76844,2.58231-6.07082
	c0.02658-2.84558-1.05582-5.53095-3.04903-7.56207c-1.99326-2.03111-4.65798-3.16438-7.50356-3.19133
	c-0.04191-0.0003-0.08447-0.00067-0.12698-0.00067c-3.45127,0-6.70376,1.32873-9.17036,3.74979
	c-2.49723,2.45037-3.89075,5.72677-3.92399,9.22557c-0.04057,4.28366,1.58964,8.32694,4.59017,11.38463
	c3.00047,3.05769,7.0122,4.76401,11.29586,4.80458c0.06316,0.00067,0.12765,0.00067,0.19019,0.00067
	c5.15723,0,10.01667-1.98492,13.70329-5.6024c3.73187-3.66169,5.81415-8.5577,5.86337-13.78547
	c0.0605-6.43709-2.4001-12.49992-6.92912-17.0718c-4.45454-4.49674-10.3684-6.97333-16.6526-6.97333h-79.158
	c-6.28426,0-12.19813,2.47659-16.65297,6.97363c-4.52871,4.57158-6.98931,10.63441-6.92882,17.0715
	c0.04953,5.22777,2.13187,10.12378,5.86337,13.78547c3.7315,3.66198,8.68201,5.67288,13.89313,5.60173
	c4.28403-0.04057,8.29576-1.74689,11.29623-4.80458c3.00053-3.05769,4.63074-7.10097,4.59017-11.38463
	c-0.03324-3.4988-1.42645-6.7752-3.92399-9.22557c-2.49687-2.45061-5.79919-3.77104-9.29763-3.74912
	c-5.87403,0.05553-10.60776,4.87973-10.5526,10.75339c0.02192,2.30208,0.93878,4.45817,2.58231,6.07082
	c1.64317,1.61259,3.8216,2.49251,6.11799,2.4669c1.85031-0.01762,3.58321-0.75459,4.87936-2.07502
	c1.29585-1.32073,1.99987-3.06696,1.98261-4.91726c-0.01399-1.47429-0.60139-2.85521-1.65352-3.88772
	c-1.05213-1.03251-2.43765-1.592-3.9183-1.58001c-0.80514-0.00466-1.44704-0.6313-1.45437-1.42712
	c-0.00763-0.79582,0.6313-1.44704,1.42712-1.45437c2.25085-0.02592,4.36177,0.83239,5.96376,2.40441
	c1.60193,1.57208,2.49584,3.67367,2.51679,5.91756c0.02495,2.62021-0.97239,5.0928-2.80737,6.96273
	c-1.83529,1.87023-4.28863,2.9137-6.90884,2.93829c-0.03724,0.00036-0.07478,0.00066-0.11166,0.00066
	c-3.03044,0-5.88602-1.16645-8.0521-3.29232c-2.19266-2.15149-3.41633-5.02832-3.44528-8.1003
	c-0.07012-7.46264,5.94415-13.59164,13.40684-13.66212c4.26035-0.0588,8.29673,1.58407,11.3434,4.57358
	c3.04667,2.98981,4.74676,6.98695,4.78696,11.25529c0.0479,5.05357-1.87519,9.82327-5.41493,13.43046
	c-3.53931,3.60712-8.27214,5.61965-13.32564,5.66755c-6.02528,0.05982-11.65826-2.22597-15.93896-6.42649
	c-4.281-4.20089-6.66979-9.81727-6.72634-15.81495c-0.06812-7.21202,2.689-14.00484,7.76321-19.12689
	c4.99967-5.04757,11.64094-7.82697,18.70007-7.82697h79.158c7.05943,0,13.69997,2.7794,18.70038,7.82667
	C136.51619,33.15166,139.27271,39.94448,139.2049,47.1565z"/>
</svg>
